<?xml version="1.0" standalone="no"?>
<!DOCTYPE svg PUBLIC "-//W3C//DTD SVG 20010904//EN"
 "http://www.w3.org/TR/2001/REC-SVG-20010904/DTD/svg10.dtd">
<svg version="1.0" xmlns="http://www.w3.org/2000/svg"
 width="566.000000pt" height="566.000000pt" viewBox="0 0 566.000000 566.000000"
 preserveAspectRatio="xMidYMid meet">
<metadata>
Created by potrace 1.14, written by Peter Selinger 2001-2017
</metadata>
<g transform="translate(0.000000,566.000000) scale(0.100000,-0.100000)"
fill="#000000" stroke="none">
<path d="M1947 5291 c3 -14 6 -32 5 -41 -2 -31 10 -70 20 -64 6 4 8 -3 6 -16
-3 -23 -48 -41 -48 -20 0 6 -6 10 -12 10 -8 0 -14 -15 -15 -36 -1 -28 1 -34
13 -30 9 3 20 6 25 6 5 0 9 8 9 18 1 16 1 16 11 -1 5 -9 7 -22 4 -27 -3 -6 -1
-10 4 -10 6 0 11 -4 11 -10 0 -5 -7 -10 -15 -10 -8 0 -15 5 -15 10 0 6 -5 10
-12 10 -6 0 -9 -3 -5 -6 3 -3 2 -17 -3 -30 -6 -15 -6 -26 1 -30 5 -3 10 -27 9
-52 0 -26 3 -62 6 -81 5 -26 4 -32 -6 -26 -10 6 -11 4 -6 -11 5 -10 10 -28 13
-39 3 -11 7 -27 10 -35 4 -8 5 -19 4 -24 -1 -4 3 -14 9 -21 5 -6 13 -36 16
-66 3 -30 10 -62 16 -73 7 -13 7 -21 -2 -26 -16 -10 -6 -40 13 -40 8 0 20 -6
26 -14 10 -11 8 -15 -6 -18 -16 -3 -16 -5 4 -23 21 -17 21 -21 7 -36 -16 -17
-38 -18 -144 -4 -19 2 -88 7 -154 11 -157 8 -152 7 -226 39 -35 15 -75 29 -87
31 -48 9 -73 24 -73 44 0 18 -10 25 -32 21 -11 -1 -38 67 -38 94 0 12 -9 34
-21 49 -11 14 -18 26 -15 26 4 0 -2 17 -12 38 -22 42 -36 91 -33 110 1 6 -5
12 -13 12 -11 0 -15 7 -13 22 2 12 0 27 -4 33 -51 65 -86 78 -104 38 -11 -26
-25 -30 -25 -9 0 8 -4 17 -8 20 -15 9 -6 -125 9 -135 12 -8 12 -11 -1 -22 -37
-29 -13 -145 26 -130 14 5 14 3 3 -15 -11 -17 -11 -24 2 -39 8 -10 14 -25 13
-33 -1 -8 -2 -28 -3 -43 -1 -20 -5 -26 -13 -21 -10 6 -10 5 0 -8 10 -13 9 -18
-4 -29 -9 -7 -27 -14 -41 -15 -23 -1 -25 2 -21 42 2 31 0 40 -9 33 -7 -7 -13
-5 -17 3 -3 7 -3 3 0 -9 3 -13 2 -24 -3 -24 -51 -8 -69 2 -58 34 4 8 -6 13
-27 14 -31 2 -77 33 -50 33 7 0 11 4 7 9 -3 5 -1 12 5 16 15 9 2 25 -15 19
-15 -6 -39 31 -30 45 7 12 -26 45 -34 34 -9 -12 -42 -9 -68 5 -13 7 -23 10
-23 7 0 -4 -7 1 -16 9 -8 9 -12 21 -9 26 11 18 -22 58 -60 71 -36 14 -44 24
-22 32 9 4 8 8 -3 16 -9 6 -19 6 -24 1 -4 -4 -14 -6 -21 -4 -7 3 -15 -2 -18
-10 -4 -9 -3 -16 2 -16 4 0 13 -11 19 -25 10 -22 9 -24 -10 -22 -11 2 -27 12
-34 22 -7 10 -20 15 -29 12 -16 -7 -21 -27 -5 -27 21 0 51 -45 45 -69 -5 -19
-3 -22 10 -17 22 8 41 -4 24 -15 -11 -7 -12 -12 -1 -29 6 -11 12 -30 12 -42 0
-13 16 -41 35 -63 19 -22 35 -46 35 -53 0 -7 7 -15 15 -18 8 -4 15 -12 15 -18
0 -7 9 -22 20 -34 11 -12 20 -25 20 -30 0 -5 7 -15 15 -22 8 -7 12 -17 8 -23
-3 -5 -1 -7 5 -3 9 5 26 -9 27 -24 2 -17 60 -90 72 -90 8 0 12 -4 9 -9 -3 -5
1 -11 9 -15 8 -3 15 -12 15 -20 0 -8 6 -21 14 -29 13 -12 9 -19 -25 -51 -34
-33 -45 -38 -86 -38 -66 0 -107 -21 -127 -66 -19 -46 -57 -149 -58 -159 0 -5
-6 -16 -13 -27 -14 -19 -10 -44 9 -61 6 -5 23 -28 39 -51 15 -22 35 -49 45
-60 10 -10 28 -33 40 -51 20 -29 21 -32 5 -35 -10 -2 -38 5 -63 15 -25 11 -57
21 -73 23 -57 7 -76 13 -108 30 -34 18 -39 20 -72 22 -10 1 -15 7 -12 12 3 6
-3 10 -14 10 -11 0 -23 5 -26 10 -4 6 -10 8 -15 5 -5 -3 -18 0 -29 7 -16 9
-23 10 -32 1 -8 -8 -18 -9 -35 0 -18 7 -28 7 -35 0 -8 -8 8 -20 54 -42 36 -17
70 -31 76 -31 6 0 11 -9 11 -19 0 -14 -6 -19 -20 -16 -11 2 -20 -1 -20 -6 0
-6 -5 -7 -11 -3 -6 3 -15 1 -19 -6 -4 -7 -15 -10 -25 -7 -9 4 -14 11 -10 16 3
5 0 13 -7 17 -7 4 -10 4 -6 -1 4 -4 2 -15 -5 -23 -9 -12 -9 -16 1 -19 6 -3 10
-9 7 -13 -3 -5 0 -12 6 -16 8 -4 9 -3 5 4 -10 17 13 15 30 -2 7 -8 19 -16 26
-18 8 -3 4 -12 -11 -27 -18 -18 -36 -23 -97 -26 -101 -5 -120 -21 -33 -29 121
-12 174 -18 193 -25 12 -4 33 -7 49 -6 15 0 27 -2 27 -5 0 -3 28 -7 63 -8 34
-1 91 -7 127 -13 36 -6 72 -11 80 -11 8 0 33 -5 55 -11 22 -6 51 -11 65 -12
91 -7 108 -16 152 -77 24 -33 48 -65 53 -72 6 -6 26 -31 45 -56 19 -25 38 -46
42 -48 21 -9 2 -44 -53 -103 -33 -35 -66 -71 -72 -80 -7 -9 -46 -53 -87 -99
-41 -45 -80 -88 -85 -94 -6 -6 -44 -49 -85 -96 -41 -46 -79 -90 -85 -96 -43
-48 -113 -131 -125 -148 -8 -12 -23 -30 -33 -41 -11 -11 -29 -33 -42 -50 l-23
-30 24 -95 c13 -52 26 -104 28 -115 2 -11 9 -39 14 -63 7 -30 7 -42 -2 -42 -7
0 -6 -3 2 -9 12 -7 24 -44 38 -117 2 -12 18 -80 34 -150 17 -71 37 -156 45
-189 8 -33 27 -116 44 -185 42 -176 81 -347 81 -357 0 -4 -24 -9 -52 -9 -29
-1 -54 -7 -56 -13 -2 -6 -7 -9 -12 -6 -10 6 -32 -54 -24 -67 3 -5 -6 -22 -21
-38 -22 -23 -26 -34 -20 -58 7 -35 34 -56 94 -72 34 -9 47 -8 77 6 20 10 41
28 47 41 10 22 27 30 39 17 4 -3 -7 -25 -23 -49 -16 -23 -29 -52 -29 -64 0
-24 32 -57 69 -69 25 -8 119 -9 124 -1 2 2 18 23 36 47 18 23 27 42 21 42 -7
0 -10 6 -7 14 3 7 0 19 -6 26 -10 10 5 11 68 6 44 -4 107 -9 140 -12 33 -2 83
-7 110 -10 28 -3 68 -6 90 -8 99 -9 190 -18 195 -21 11 -7 169 -25 265 -31 55
-3 102 -8 105 -11 7 -7 -32 -33 -41 -27 -14 8 -79 -27 -90 -48 -6 -11 -12 -33
-14 -48 -3 -25 1 -31 41 -50 66 -32 135 -21 177 30 l19 22 18 -30 c21 -33 45
-44 105 -47 92 -4 146 95 86 159 l-22 23 48 -7 c26 -4 84 -11 128 -14 44 -3
103 -8 130 -11 28 -2 82 -7 120 -9 107 -8 188 -16 195 -21 4 -2 47 -7 96 -11
93 -6 139 -11 139 -14 0 -4 47 -10 125 -15 47 -4 101 -8 120 -10 19 -2 71 -6
115 -10 44 -3 96 -8 115 -10 68 -8 195 -18 213 -17 27 1 20 -12 -12 -25 -22
-8 -32 -21 -40 -48 -13 -48 -3 -67 46 -90 32 -16 44 -16 88 -6 57 13 75 15
129 13 32 -2 37 -5 31 -19 -31 -73 -1 -115 86 -121 96 -7 141 24 132 91 -3 23
0 27 23 27 54 0 112 58 102 103 -4 19 3 20 47 8 47 -13 112 5 133 37 20 31 17
91 -7 115 -10 11 -35 21 -56 23 -43 4 -40 2 -49 31 -6 18 -4 22 7 17 10 -3 18
3 22 18 4 13 23 56 42 97 19 40 32 79 29 87 -3 7 -1 16 5 20 6 3 8 12 5 20 -3
8 0 14 7 14 21 0 58 77 52 107 -3 16 -2 22 1 16 15 -33 33 8 37 85 1 21 6 31
14 27 13 -4 29 38 25 63 -2 6 2 12 8 12 7 0 9 8 5 20 -5 15 -3 18 9 14 11 -4
16 0 17 15 1 20 4 32 9 49 1 4 2 11 1 16 -1 5 3 12 9 16 9 6 17 32 51 160 6
19 11 44 13 55 2 11 11 46 20 78 10 31 19 72 22 90 2 17 6 50 9 71 4 30 15 47
44 73 61 52 72 112 36 184 -11 20 -12 35 -5 53 5 14 12 48 14 75 3 27 12 67
21 88 9 21 19 49 21 63 2 14 7 36 10 50 4 14 8 35 9 47 2 11 6 29 9 40 3 10 8
34 11 53 8 45 18 84 49 194 14 49 23 92 21 96 -3 4 4 10 14 13 20 5 32 53 20
83 -4 11 -8 35 -8 55 -1 19 -6 40 -13 47 -6 6 -12 20 -13 29 -2 17 -9 57 -21
126 -6 40 -7 40 -5 57 1 12 3 13 10 1 7 -10 13 -11 30 -2 12 7 19 16 16 22 -7
10 6 17 40 22 11 1 32 11 47 21 16 10 35 16 43 12 9 -3 14 -2 11 3 -8 13 45
45 72 43 12 -1 25 4 28 11 2 7 27 21 54 32 28 11 50 25 50 33 0 7 5 10 10 7 6
-3 10 1 10 9 0 16 33 39 43 30 3 -3 14 -1 24 6 15 9 12 11 -17 7 -19 -3 -48
-10 -65 -17 -30 -11 -42 -11 -38 1 3 8 -112 -31 -144 -49 -12 -7 -26 -12 -32
-12 -5 0 -39 -13 -74 -30 -36 -16 -73 -30 -82 -30 -9 0 -25 -5 -37 -11 -24
-13 -31 -8 -30 28 0 15 -7 36 -16 46 -13 15 -14 20 -3 26 9 6 10 10 2 12 -17
6 -30 72 -24 117 4 29 0 43 -13 57 -14 14 -19 33 -19 74 0 49 3 59 27 76 47
37 118 105 118 114 0 5 12 18 28 29 22 17 25 23 15 33 -7 7 -13 25 -13 40 0
30 -14 46 -25 29 -4 -6 -26 -20 -51 -31 -24 -12 -44 -25 -44 -30 0 -5 -7 -9
-15 -9 -9 0 -18 -7 -21 -15 -3 -8 -15 -13 -27 -11 -25 3 -57 61 -64 116 -3 19
-11 39 -19 43 -11 6 -8 16 14 50 15 23 35 48 45 56 14 9 16 16 8 24 -6 6 -11
18 -11 26 0 8 3 11 6 8 7 -7 44 30 44 45 0 4 -6 8 -12 8 -7 0 -2 10 12 23 14
12 25 27 25 34 0 6 18 31 39 55 69 76 73 87 8 20 -61 -63 -85 -76 -62 -33 6
12 15 21 20 21 6 0 10 10 10 23 0 12 14 37 31 55 l31 33 -29 -7 c-15 -3 -35
-14 -44 -25 -9 -10 -20 -15 -23 -11 -4 3 -4 -1 0 -11 4 -13 1 -17 -15 -17 -12
0 -21 -6 -21 -15 0 -8 -10 -20 -22 -26 -27 -15 -35 -23 -72 -72 -16 -21 -31
-35 -34 -33 -2 3 -13 -1 -24 -8 -11 -8 -28 -12 -39 -9 -10 3 -19 1 -19 -5 0
-6 -13 -7 -37 -1 -21 5 -46 11 -55 14 -10 2 -18 -1 -18 -6 0 -6 -8 -6 -20 1
-11 6 -18 15 -15 20 9 15 -38 4 -95 -22 -95 -44 -100 -42 -105 23 -2 22 1 26
18 21 12 -3 18 -1 14 5 -4 6 0 17 9 24 21 17 45 66 49 100 5 40 34 79 59 79
17 0 18 2 6 10 -12 8 -12 10 3 16 9 3 17 13 17 21 0 8 5 11 11 7 16 -9 28 14
24 48 -2 15 0 28 5 28 6 0 10 9 10 20 0 11 7 20 15 20 15 0 38 34 29 43 -9 8
-44 -16 -44 -29 0 -12 -25 -26 -48 -28 -11 -1 -51 -46 -92 -105 -10 -14 -16
-17 -21 -9 -5 8 -10 2 -14 -15 -4 -15 -13 -27 -21 -27 -7 0 -11 -6 -9 -12 7
-21 -42 -51 -63 -39 -9 6 -12 11 -7 11 6 0 11 10 12 22 1 11 7 24 13 28 7 4
11 10 9 14 -4 12 24 76 34 76 5 0 7 7 3 15 -3 10 1 15 12 15 12 0 14 2 4 8 -7
5 -11 19 -10 32 4 35 -18 35 -30 0 -8 -21 -18 -30 -32 -30 -12 0 -18 -4 -15
-10 3 -5 1 -10 -5 -10 -6 0 -8 -5 -3 -12 12 -20 14 -46 3 -53 -6 -4 -8 -11 -5
-16 4 -5 1 -9 -4 -9 -6 0 -11 -9 -11 -20 0 -23 -15 -27 -24 -5 -3 8 -10 15
-15 15 -17 0 -1 -27 22 -38 18 -9 12 -10 -29 -6 -43 5 -52 3 -58 -12 -6 -15
-9 -16 -16 -4 -5 9 0 24 16 45 24 32 24 48 -1 39 -20 -8 -26 48 -7 64 10 7 11
11 5 7 -21 -10 -15 13 8 28 14 11 17 16 7 19 -10 4 -9 10 5 26 11 11 14 23 9
26 -6 3 -8 15 -5 25 3 13 -3 23 -19 31 -12 7 -20 9 -16 5 4 -4 -1 -19 -12 -33
-11 -13 -17 -28 -15 -33 3 -4 -5 -15 -19 -24 -17 -11 -23 -22 -19 -33 6 -15 5
-15 -11 -3 -16 13 -18 13 -16 0 5 -36 0 -51 -16 -45 -14 5 -16 1 -11 -24 6
-26 2 -32 -24 -46 -19 -10 -29 -21 -25 -30 3 -8 1 -14 -4 -14 -8 0 -52 -73
-55 -90 0 -3 -7 -16 -15 -30 -8 -14 -15 -27 -15 -30 -5 -24 -40 -77 -51 -77
-8 0 -14 4 -14 8 0 4 -17 13 -37 19 -21 7 -46 19 -55 28 -10 8 -18 12 -18 9 0
-4 -11 -2 -24 2 -16 7 -32 5 -51 -5 -15 -8 -45 -15 -66 -16 -23 -1 -47 -9 -60
-21 -21 -20 -26 -20 -134 -12 -22 1 -52 3 -68 4 -27 1 -27 1 -13 35 11 26 11
37 3 46 -9 10 -8 12 6 7 14 -5 16 -2 11 18 -4 16 -2 25 6 25 6 0 10 10 8 23
-2 12 2 21 8 20 8 -1 10 6 6 19 -4 16 -1 20 9 16 11 -4 14 5 15 36 3 74 26
184 45 211 3 6 3 19 -1 30 -4 12 -2 25 7 33 7 8 11 18 8 23 -4 5 -1 9 5 9 6 0
8 5 5 10 -3 6 -17 7 -31 4 -20 -5 -24 -3 -24 17 l0 23 -20 -22 c-11 -12 -20
-26 -20 -31 0 -14 -41 -41 -52 -35 -5 3 -16 0 -24 -7 -12 -10 -16 -9 -20 9 -4
13 -12 19 -22 15 -13 -3 -12 -1 3 12 11 9 19 20 18 25 -2 5 2 22 8 37 6 15 7
24 3 20 -4 -4 -13 -2 -19 3 -9 8 -14 6 -19 -5 -3 -8 -12 -15 -19 -15 -8 0 -22
-9 -32 -20 -10 -11 -22 -17 -27 -14 -6 4 -7 -2 -3 -15 4 -12 2 -21 -4 -21 -6
0 -11 5 -11 11 0 5 -5 7 -10 4 -8 -5 -7 -11 1 -21 9 -11 8 -14 -5 -14 -9 0
-19 7 -22 15 -4 8 -11 12 -16 9 -6 -4 -8 5 -3 24 3 17 2 33 -4 36 -6 4 -8 13
-4 21 3 8 0 15 -6 15 -6 0 -11 8 -11 17 0 18 -10 12 -14 -9 -2 -7 -9 -26 -16
-43 -7 -16 -12 -36 -11 -43 1 -8 -3 -19 -9 -27 -8 -10 -8 -15 1 -20 7 -5 8
-10 1 -14 -6 -3 -12 -18 -14 -33 -2 -15 -7 -30 -11 -34 -11 -12 -8 -42 6 -47
7 -3 4 -6 -7 -6 -11 -1 -16 -6 -13 -15 3 -7 0 -19 -6 -25 -8 -8 -7 -11 3 -11
10 0 8 -4 -5 -13 -10 -8 -15 -19 -11 -25 4 -7 3 -12 -2 -12 -6 0 -8 -8 -5 -19
3 -11 -2 -21 -12 -25 -12 -4 -14 -10 -7 -23 7 -11 6 -21 -3 -30 -7 -7 -11 -22
-8 -34 4 -15 2 -20 -5 -15 -17 10 -27 -42 -15 -75 l11 -28 -62 4 c-33 2 -117
7 -186 10 -69 4 -152 8 -185 10 -33 2 -72 8 -87 14 -30 11 -38 31 -13 31 18 0
18 -3 0 65 -8 31 -15 74 -17 96 -1 22 -5 42 -10 45 -4 3 -5 10 -2 17 2 7 -6
29 -20 49 -18 28 -21 39 -13 48 9 10 9 11 0 6 -7 -4 -21 -2 -30 3 -10 6 -13
11 -8 11 14 0 13 59 -1 68 -13 9 -34 68 -27 76 3 3 -6 20 -21 38 -14 18 -30
38 -34 43 -5 6 -9 15 -10 20 -1 6 -10 10 -20 10 -9 0 -23 4 -30 8 -11 7 -11
12 0 25 8 10 9 13 1 9 -6 -4 -14 -3 -18 3 -3 5 -1 10 4 10 6 0 11 7 11 17 0
14 -2 14 -20 -2 -18 -16 -20 -16 -26 -1 -4 11 -13 15 -25 11 -11 -4 -19 -2
-19 5 0 6 -5 8 -10 5 -6 -3 -13 1 -17 11 -4 12 2 25 20 40 30 26 40 67 10 43
-13 -11 -17 -11 -20 -1 -3 6 -12 12 -20 12 -10 0 -13 6 -9 16 4 9 0 24 -8 33
-14 15 -16 20 -16 40 0 6 -9 9 -20 8 -15 -1 -18 -6 -13 -26z"/>
<path d="M2041 5244 c0 -11 3 -14 6 -6 3 7 2 16 -1 19 -3 4 -6 -2 -5 -13z"/>
<path d="M3475 4970 c-3 -5 1 -10 10 -10 9 0 13 5 10 10 -3 6 -8 10 -10 10 -2
0 -7 -4 -10 -10z"/>
<path d="M3190 4955 c0 -8 5 -15 10 -15 6 0 10 7 10 15 0 8 -4 15 -10 15 -5 0
-10 -7 -10 -15z"/>
<path d="M5430 3490 c-13 -8 -12 -10 3 -10 9 0 17 5 17 10 0 12 -1 12 -20 0z"/>
<path d="M508 702 c-60 -42 -66 -83 -17 -126 65 -58 199 -19 199 58 0 32 -32
66 -68 73 -57 11 -93 10 -114 -5z"/>
<path d="M4481 406 c-71 -41 -49 -124 39 -147 82 -22 149 8 165 72 6 23 1 31
-29 54 -42 32 -136 43 -175 21z"/>
</g>
</svg>
